# xmcd
#
# Track frame offsets: 
#        150
#        40858
#        71987
#        100553
#        114313
#        122051
#        133392
#        138080
#        141976
#        151656
#        161093
#        177815
#        199060
#        224969
#
# Disc length: 3213 seconds
#
# Revision: 2
# Processed by: cddbd v1.5.2PL0 Copyright (c) Steve Scherf et al.
# Submitted via: ExactAudioCopy v0.99pb4
#
DISCID=d20c8b0e
DTITLE=Director: Lucio B. Videla - Orquesta de Cámara de la Biblioteca
DTITLE=del Congreso de la Nación
DYEAR=1998
DGENRE=Classical
TTITLE0=Wolfgang A. Mozart (1756-1791) - Concierto para piano y orques
TTITLE0=ta en La mayor K. 414 - Allegro
TTITLE1=Wolfgang A. Mozart (1756-1791) - Concierto para piano y orques
TTITLE1=ta en La mayor K. 414 - Andante
TTITLE2=Wolfgang A. Mozart (1756-1791) - Concierto para piano y orques
TTITLE2=ta en La mayor K. 414 - Rondeau: Allegretto
TTITLE3=Alberto Williams (1862-1952) - Tercera Suite Argentina para Cu
TTITLE3=erdas (Primera grabación mundial) - Vidalita
TTITLE4=Alberto Williams (1862-1952) - Tercera Suite Argentina para Cu
TTITLE4=erdas (Primera grabación mundial) - Milonga
TTITLE5=Alberto Williams (1862-1952) - Tercera Suite Argentina para Cu
TTITLE5=erdas (Primera grabación mundial) - Arrorró con variaciones
TTITLE6=Alberto Williams (1862-1952) - Tercera Suite Argentina para Cu
TTITLE6=erdas (Primera grabación mundial) - 1° variación
TTITLE7=Alberto Williams (1862-1952) - Tercera Suite Argentina para Cu
TTITLE7=erdas (Primera grabación mundial) - 2° variación
TTITLE8=Alberto Williams (1862-1952) - Tercera Suite Argentina para Cu
TTITLE8=erdas (Primera grabación mundial) - 3° variación
TTITLE9=Alberto Williams (1862-1952) - Tercera Suite Argentina para Cu
TTITLE9=erdas (Primera grabación mundial) - 4° variación
TTITLE10=Alberto Williams (1862-1952) - Tercera Suite Argentina para C
TTITLE10=uerdas (Primera grabación mundial) - Cielito
TTITLE11=Johann Sebastian Bach (1685-1750) - Concierto para violín, ob
TTITLE11=oe, cuerdas y continuo en Re menor BWV 1060 - Allegro
TTITLE12=Johann Sebastian Bach (1685-1750) - Concierto para violín, ob
TTITLE12=oe, cuerdas y continuo en Re menor BWV 1060 - Adagio
TTITLE13=Johann Sebastian Bach (1685-1750) - Concierto para violín, ob
TTITLE13=oe, cuerdas y continuo en Re menor BWV 1060 - Allegro
EXTD=
EXTT0=
EXTT1=
EXTT2=
EXTT3=
EXTT4=
EXTT5=
EXTT6=
EXTT7=
EXTT8=
EXTT9=
EXTT10=
EXTT11=
EXTT12=
EXTT13=
PLAYORDER=
